<?xml version="1.0" encoding="utf-8"?>
<!-- Uploaded to: SVG Repo, www.svgrepo.com, Generator: SVG Repo Mixer Tools -->
<svg fill="#000000" width="800px" height="800px" viewBox="0 0 32 32" version="1.1" xmlns="http://www.w3.org/2000/svg">
<title>hand-holding-heart</title>
<path d="M29.287 19.252c-0.486-0.206-1.052-0.326-1.646-0.326-0.65 0-1.267 0.144-1.82 0.402l0.027-0.011-5.121 2.301c-0.32-1.36-1.523-2.356-2.959-2.356-0.058 0-0.115 0.002-0.172 0.005l0.008-0h-3.711l-4.691-1.375c-0.104-0.032-0.225-0.051-0.349-0.051-0.001 0-0.002 0-0.003 0h-1.669v-0.257c0-0.69-0.56-1.25-1.25-1.25v0h-3.883c-0.69 0-1.25 0.56-1.25 1.25v0 12.208c0 0.69 0.56 1.25 1.25 1.25h3.883c0.69-0 1.25-0.56 1.25-1.25v-0.44c1.596 0.316 2.993 0.738 4.33 1.278l-0.159-0.057c1.209 0.432 2.603 0.682 4.056 0.682 1.676 0 3.274-0.332 4.732-0.934l-0.082 0.030c1.271-0.563 2.351-1.16 3.372-1.839l-0.083 0.052c0.334-0.207 0.668-0.412 1.004-0.611 1.648-0.977 2.973-1.832 4.17-2.699 0.595-0.424 1.115-0.843 1.608-1.29l-0.014 0.013c0.428-0.353 0.769-0.795 0.997-1.3l0.009-0.023c0.052-0.133 0.082-0.287 0.082-0.448 0-0.093-0.010-0.184-0.029-0.271l0.002 0.008c-0.176-1.17-0.885-2.144-1.868-2.68l-0.019-0.010zM4.681 28.541h-1.383v-9.709h1.383zM28.379 22.174c-0.398 0.356-0.831 0.702-1.283 1.024l-0.046 0.031c-1.131 0.818-2.395 1.635-3.975 2.57-0.352 0.209-0.697 0.424-1.045 0.639-0.833 0.557-1.791 1.091-2.793 1.547l-0.129 0.052c-1.096 0.451-2.369 0.712-3.703 0.712-1.137 0-2.229-0.19-3.247-0.54l0.070 0.021c-1.451-0.607-3.148-1.097-4.911-1.392l-0.137-0.019v-6.48h1.489l4.691 1.375c0.105 0.032 0.226 0.051 0.351 0.051h3.891c0.443 0 0.697 0.17 0.697 0.469s-0.254 0.469-0.697 0.469h-6.809c-0.69 0-1.25 0.56-1.25 1.25s0.56 1.25 1.25 1.25v0h7.781c0 0 0 0 0.001 0 0.185 0 0.361-0.040 0.519-0.113l-0.008 0.003 7.803-3.504c0.228-0.105 0.494-0.167 0.774-0.167 0.183 0 0.359 0.026 0.526 0.075l-0.013-0.003c0.185 0.113 0.326 0.282 0.4 0.484l0.002 0.007c-0.066 0.064-0.137 0.129-0.201 0.189zM16.060 17.075c0.23 0.254 0.561 0.413 0.929 0.413s0.699-0.159 0.928-0.412l0.001-0.001 5.96-6.607c1.172-1.091 1.919-2.627 1.969-4.338l0-0.009c0-0.014 0-0.030 0-0.047 0-1.469-0.599-2.798-1.566-3.755l-0-0c-0.986-0.973-2.34-1.574-3.836-1.574-1.321 0-2.533 0.469-3.477 1.25l0.009-0.007c-0.872-0.648-1.971-1.038-3.16-1.038-0.481 0-0.947 0.064-1.39 0.183l0.037-0.009c-1.926 0.548-3.411 2.033-3.949 3.919l-0.010 0.040c-0.107 0.405-0.168 0.869-0.168 1.348 0 1.582 0.669 3.008 1.74 4.010l0.003 0.003zM10.919 5.729c0.311-1.061 1.13-1.88 2.169-2.185l0.023-0.006c0.213-0.061 0.459-0.095 0.712-0.096h0c0.909 0.030 1.717 0.435 2.28 1.064l0.003 0.003c0.226 0.226 0.539 0.366 0.884 0.366s0.658-0.14 0.884-0.366v0c0.654-0.727 1.577-1.199 2.612-1.26l0.010-0.001c0.787 0.006 1.499 0.324 2.018 0.836l-0-0c0.518 0.556 0.836 1.305 0.836 2.128 0 1.024-0.492 1.933-1.254 2.504l-0.008 0.006c-0.016 0.015-0.031 0.030-0.044 0.046l-0.001 0.001-5.053 5.601-5.097-5.648c-0.649-0.552-1.059-1.369-1.059-2.282 0-0.253 0.031-0.498 0.090-0.733l-0.004 0.021z"></path>
</svg>