<?xml version="1.0" encoding="utf-8"?><svg xmlns="http://www.w3.org/2000/svg" xmlns:xlink="http://www.w3.org/1999/xlink"><symbol viewBox="0 0 943 946" id="buttons-close-btn" xmlns="http://www.w3.org/2000/svg">
    <rect y="851.925" width="1204.8" height="120.48" rx="60.2401" transform="rotate(-45 0 851.925)"/>
    <rect x="90.3604" y="8.56311" width="1204.8" height="120.48" rx="60.2401" transform="rotate(45 90.3604 8.56311)"/>
</symbol><symbol viewBox="0 0 442 244" id="media-b17" xmlns="http://www.w3.org/2000/svg">
    <path fill-rule="evenodd" clip-rule="evenodd" d="M67.3843 0H0.535156V153.198V155.981H0.578287C2.09453 204.843 43.396 244.001 94.1239 244.001C145.812 244.001 187.713 203.347 187.713 153.198C187.713 103.049 145.812 62.3945 94.1239 62.3945C88.0278 62.3945 82.0678 62.96 76.2966 64.0399V137.37C80.6596 133.69 86.2966 131.471 92.4518 131.471C106.297 131.471 117.52 142.695 117.52 156.54C117.52 170.385 106.297 181.608 92.4518 181.608C78.7921 181.608 67.6842 170.683 67.3893 157.094H67.3833V156.54V155.981H67.3843V0ZM262.362 0H178.801V77.9825C196.171 98.3957 206.653 124.851 206.653 153.755C206.653 182.658 196.171 209.114 178.801 229.527V243.999H262.362V0ZM441.74 0H275.732V70.1916H332.55L276.843 212.802V212.803V240.656H355.946L355.947 240.656V240.656L416.668 70.1916H416.672L441.74 0Z"/>
</symbol><symbol viewBox="0 0 430 387" id="media-email" xmlns="http://www.w3.org/2000/svg">
    <g clip-path="url(#cclip0_455_24)">
        <path d="M388.691 0H43.1878C31.7537 0.0649051 20.8064 4.63566 12.7209 12.7209C4.63566 20.8064 0.0649051 31.7537 0 43.1878V339.333C0.0649051 350.767 4.63566 361.714 12.7209 369.799C20.8064 377.886 31.7537 382.457 43.1878 382.521H388.691C400.124 382.457 411.072 377.886 419.156 369.799C427.244 361.714 431.814 350.767 431.878 339.333V43.1878C431.814 31.7537 427.244 20.8064 419.156 12.7209C411.072 4.63566 400.124 0.0649051 388.691 0ZM43.1878 37.0181H388.691C390.327 37.0181 391.896 37.6682 393.054 38.8251C394.211 39.9823 394.86 41.5516 394.86 43.1878V81.1931L215.939 170.53L37.0181 81.1931V43.1878C37.0181 41.5516 37.6682 39.9823 38.8251 38.8251C39.9823 37.6682 41.5516 37.0181 43.1878 37.0181ZM388.691 345.503H43.1878C41.5516 345.503 39.9823 344.854 38.8251 343.696C37.6682 342.539 37.0181 340.969 37.0181 339.333V122.407L207.548 207.795C210.154 209.098 213.027 209.777 215.939 209.777C218.851 209.777 221.724 209.098 224.33 207.795L394.86 122.407V339.333C394.86 340.969 394.211 342.539 393.054 343.696C391.896 344.854 390.327 345.503 388.691 345.503Z"/>
    </g>
    <defs>
        <clipPath id="cclip0_455_24">
            <rect width="430" height="387"/>
        </clipPath>
    </defs>
</symbol><symbol viewBox="0 0 268 299" id="media-phone" xmlns="http://www.w3.org/2000/svg">
    <path d="M76.4725 10.4942C76.4725 10.4942 71.9924 0 65.1502 0C58.4165 0 54.9139 3.10888 52.5789 5.25387C50.2438 7.39886 11.1724 39.5058 11.1724 39.5058C11.1724 39.5058 -0.190595 49.4298 0.678262 68.0967C1.41136 86.7635 5.06327 113.332 24.0152 150.339C42.8314 187.266 89.9262 243.687 119.685 263.522C119.685 263.522 147.257 284.673 172.916 293.266C180.369 295.615 195.275 298.67 198.751 298.67C202.28 298.67 208.512 298.67 215.666 293.443C222.943 288.162 263.765 255.335 263.765 255.335C263.765 255.335 273.757 246.307 262.15 235.813C250.488 225.319 215.082 201.982 207.507 195.846C199.918 189.614 189.112 192.357 184.442 196.579C179.785 200.828 171.463 207.82 170.445 208.702C168.924 209.87 164.756 213.657 160.086 211.77C154.14 209.422 129.758 196.185 107.154 165.259C84.6859 134.361 82.2151 124.26 78.8618 113.345C78.2931 111.732 78.2853 109.973 78.8396 108.355C79.3939 106.736 80.4779 105.352 81.9164 104.426C85.2832 102.091 97.678 91.7594 97.678 91.7594C97.678 91.7594 105.701 83.8447 102.348 74.5181C98.9949 65.1914 76.4725 10.4942 76.4725 10.4942Z"/>
</symbol><symbol viewBox="0 0 412 344" id="media-telegram" xmlns="http://www.w3.org/2000/svg">
    <path d="M39.5994 151.821C39.5994 151.821 207.477 83.1339 265.7 58.9491C288.018 49.2752 363.708 18.3172 363.708 18.3172C363.708 18.3172 398.642 4.77581 395.731 37.665C394.759 51.209 386.996 98.6116 379.232 149.884C367.589 222.441 354.973 301.766 354.973 301.766C354.973 301.766 353.034 324.017 336.538 327.887C320.04 331.757 292.87 314.343 288.018 310.473C284.137 307.57 215.24 264.037 190.012 242.756C183.218 236.952 175.455 225.342 190.981 211.798C225.914 179.875 267.641 140.21 292.87 115.059C304.513 103.449 316.16 76.3606 267.641 109.252C198.744 156.655 130.817 201.157 130.817 201.157C130.817 201.157 115.293 210.831 86.1813 202.124C57.0699 193.417 23.1061 181.809 23.1061 181.809C23.1061 181.809 -0.18107 167.296 39.6045 151.821H39.5994Z" stroke-width="30.7759"/>
</symbol><symbol viewBox="0 0 134 84" id="media-vk" xmlns="http://www.w3.org/2000/svg">
    <path d="M73.7805 83.4776C28.91 83.4776 1.6788 52.3461 0.620117 0.614014H23.3459C24.0544 38.6151 41.3435 54.742 54.5969 58.0295V0.614014H76.3834V33.4013C89.1672 31.9844 102.54 17.0673 107.045 0.614014H128.466C125.035 20.8563 110.476 35.7733 100.176 41.9264C110.476 46.9014 127.049 59.924 133.441 83.4776H109.887C104.912 67.7327 92.7173 55.538 76.3834 53.8823V83.4776H73.7805Z"/>
</symbol><symbol viewBox="0 0 381 381" id="media-whatsapp" xmlns="http://www.w3.org/2000/svg">
    <path d="M324.053 55.2808C306.585 37.6823 285.793 23.7326 262.888 14.2424C239.98 4.75217 215.414 -0.0886016 190.619 0.00122764C157.473 0.0336329 124.915 8.77447 96.2081 25.3483C67.5016 41.9222 43.6537 65.7474 27.0522 94.4377C10.4507 123.128 1.67888 155.678 1.61454 188.824C1.55045 221.973 10.1965 254.554 26.6867 283.309L0 381.24L100.075 355.03C127.709 370.403 158.76 378.597 190.381 378.857C240.65 378.859 288.883 359.004 324.581 323.616C360.282 288.229 380.559 240.172 381 189.906C380.833 164.823 375.715 140.019 365.943 116.918C356.172 93.8159 341.935 72.8702 324.053 55.2808ZM190.619 346.213C162.448 346.233 134.792 338.66 110.559 324.292L104.841 320.718L45.5103 336.444L61.2364 278.544L57.424 272.587C37.1529 239.865 29.5874 200.843 36.1609 162.914C42.7344 124.987 62.9903 90.7874 93.0912 66.7949C123.192 42.8021 161.047 30.6828 199.485 32.7327C237.924 34.7823 274.277 50.8589 301.655 77.9168C331.582 107.181 348.714 147.1 349.31 188.953C348.933 230.791 332.047 270.788 302.327 300.241C272.609 329.692 232.46 346.216 190.619 346.213ZM276.636 228.506C271.871 226.123 248.758 214.686 244.469 213.257C240.18 211.827 236.844 210.874 233.747 215.639C229.086 222.027 224.073 228.151 218.735 233.986C216.114 237.322 213.255 237.561 208.49 233.986C181.319 223.25 158.683 203.473 144.394 177.992C139.39 169.652 149.159 170.129 158.214 152.258C158.883 150.969 159.231 149.54 159.231 148.089C159.231 146.638 158.883 145.208 158.214 143.919C158.214 141.536 147.492 118.185 143.679 108.892C139.867 99.5997 136.054 101.029 132.957 100.791H123.664C121.256 100.828 118.884 101.379 116.707 102.406C114.529 103.433 112.595 104.913 111.036 106.748C105.689 111.947 101.519 118.231 98.8065 125.177C96.0937 132.123 94.9014 139.57 95.3096 147.016C96.8035 164.842 103.516 181.831 114.61 195.863C134.915 226.262 162.743 250.887 195.385 267.345C212.505 277.338 232.4 281.517 252.094 279.258C258.651 277.958 264.863 275.291 270.322 271.431C275.783 267.574 280.37 262.608 283.784 256.861C286.949 249.846 287.945 242.047 286.644 234.463C284.499 232.08 281.401 230.889 276.636 228.506Z"/>
</symbol><symbol viewBox="0 0 800 800" id="topics-dna" xmlns="http://www.w3.org/2000/svg">
    <path d="M633.334 700C633.334 688.767 632.727 677.643 631.544 666.667M631.544 666.667H300M631.544 666.667C626.33 618.363 609.914 572.9 584.597 533.333M166.667 100C166.667 111.234 167.273 122.357 168.457 133.333M168.457 133.333H500M168.457 133.333C173.669 181.636 190.087 227.1 215.402 266.667M166.667 700C166.667 561.887 258.224 440.507 391.024 402.567L408.977 397.433C541.777 359.493 633.334 238.113 633.334 100M416.667 266.667H215.402M215.402 266.667C255.062 328.65 316.558 376.16 391.024 397.433L408.977 402.567C483.444 423.84 544.94 471.35 584.597 533.333M383.334 533.333H584.597" stroke-width="66.6667" stroke-linecap="round" stroke-linejoin="round"/>
</symbol><symbol viewBox="0 0 800 800" id="topics-magnifier" xmlns="http://www.w3.org/2000/svg">
    <g clip-path="url(#iclip0_525_610)">
        <path d="M14.6002 750.05L49.9502 785.4C69.4002 804.85 101.2 804.85 120.65 785.4L304.4 601.65C354 632.3 412.45 650 475 650C654.5 650 800 504.5 800 325C800 145.5 654.5 0 475 0C295.5 0 150 145.5 150 325C150 387.55 167.7 446 198.35 495.6L14.6002 679.35C-4.8498 698.8 -4.8498 730.6 14.6002 750.05ZM475 550C414.9 550 358.4 526.6 315.9 484.1C273.4 441.6 250 385.1 250 325C250 264.9 273.4 208.4 315.9 165.9C358.4 123.4 414.9 100 475 100C535.1 100 591.6 123.4 634.1 165.9C676.6 208.4 700 264.9 700 325C700 385.1 676.6 441.6 634.1 484.1C591.6 526.6 535.1 550 475 550Z"/>
    </g>
    <defs>
        <clipPath id="iclip0_525_610">
            <rect width="800" height="800"/>
        </clipPath>
    </defs>
</symbol><symbol viewBox="0 0 24 24" id="topics-masks" xmlns="http://www.w3.org/2000/svg">
    <path d="M16.5 17.221C17.5576 16.7652 18.614 16.0672 19.4315 15M7.38745 8.10846L8.08698 5.37926C8.52754 3.66038 8.74783 2.80094 9.32307 2.36888C9.51592 2.22403 9.73208 2.11656 9.96126 2.05159C10.6449 1.85777 11.4219 2.22163 12.9758 2.94934C14.1266 3.48822 14.7019 3.75765 15.3023 3.94822C15.511 4.01448 15.7218 4.07352 15.9342 4.12524C16.5453 4.27402 17.1725 4.34142 18.4267 4.47622C20.1206 4.65827 20.9675 4.74929 21.4668 5.27447C21.6342 5.45054 21.77 5.6566 21.8678 5.88284C22.1593 6.55769 21.939 7.41713 21.4984 9.13602L21.0207 11" stroke-width="1.5" stroke-linecap="round"/>
    <path d="M2.46673 13C2.04961 11.3713 1.84853 10.5397 2.13226 9.88284C2.22999 9.6566 2.36579 9.45054 2.53319 9.27447C3.03253 8.74929 3.87945 8.65827 5.57328 8.47622C6.82756 8.34142 7.4547 8.27402 8.06578 8.12524C8.27824 8.07352 8.48901 8.01448 8.69774 7.94822C9.29811 7.75765 9.87347 7.48822 11.0242 6.94934C12.5782 6.22163 13.3551 5.85777 14.0388 6.05159C14.268 6.11656 14.4841 6.22403 14.677 6.36888C15.2522 6.80094 15.4725 7.66038 15.9131 9.37926L16.7582 12.6766C17.7517 16.5526 15.4742 19.335 13.7324 20.8219C13.201 21.2755 12.9353 21.5023 11.907 21.7903C10.8787 22.0784 10.5401 22.0208 9.86292 21.9058C7.75527 21.5476 4.67076 20.4302 3.51432 17" stroke-width="1.5" stroke-linecap="round"/>
    <path d="M5.25882 13.2955C5.31893 12.6763 5.77997 12.1206 6.44889 11.9414C7.11781 11.7621 7.79491 12.0128 8.1566 12.5191" stroke-width="1.5" stroke-linecap="round"/>
    <path d="M19.1797 8.93565C19.1195 8.3164 18.6585 7.76073 17.9896 7.5815C17.3207 7.40226 16.6436 7.65296 16.2819 8.1592" stroke-width="1.5" stroke-linecap="round"/>
    <path d="M11.0547 11.7423C11.1148 11.123 11.5759 10.5674 12.2448 10.3881C12.9137 10.2089 13.5908 10.4596 13.9525 10.9658" stroke-width="1.5" stroke-linecap="round"/>
    <path d="M11.0963 7.04186C10.8555 7.37889 10.3871 7.4569 10.05 7.21611C9.71299 6.97531 9.63498 6.50689 9.87578 6.16986L11.0963 7.04186ZM11.9996 6.75261C11.6209 6.65113 11.2692 6.79987 11.0963 7.04186L9.87578 6.16986C10.4263 5.39938 11.4287 5.04672 12.3879 5.30372L11.9996 6.75261ZM12.4781 7.06543C12.3675 6.92277 12.2041 6.80739 11.9996 6.75261L12.3879 5.30372C12.9124 5.44427 13.3545 5.74776 13.6635 6.14629L12.4781 7.06543Z"/>
    <path d="M13.2007 16.231C13.2007 16.231 12.1758 15.4703 10.3884 15.9492C8.60094 16.4282 8.09372 17.5994 8.09372 17.5994" stroke-width="1.5" stroke-linecap="round"/>
</symbol><symbol viewBox="0 0 770 770" id="topics-people" xmlns="http://www.w3.org/2000/svg">
    <path d="M385 409.062V481.25" stroke-width="48.125" stroke-miterlimit="10" stroke-linecap="round" stroke-linejoin="round"/>
    <path d="M336.875 505.314L385 476.439L433.125 505.314" stroke-width="48.125" stroke-miterlimit="10" stroke-linecap="round" stroke-linejoin="round"/>
    <path d="M416.271 206.937C416.271 231 430.709 250.249 454.771 257.468C481.24 264.687 500.49 286.343 507.709 312.812H267.084C271.896 286.343 293.553 264.687 317.615 257.468C339.271 250.249 356.115 231 356.115 206.937" stroke-width="48.125" stroke-miterlimit="10" stroke-linecap="round" stroke-linejoin="round"/>
    <path d="M385 216.562C358.531 216.562 336.875 194.906 336.875 168.438V120.312C336.875 93.8437 358.531 72.1875 385 72.1875C411.469 72.1875 433.125 93.8437 433.125 120.312V168.438C433.125 194.906 411.469 216.562 385 216.562Z" stroke-width="48.125" stroke-miterlimit="10" stroke-linecap="round" stroke-linejoin="round"/>
    <path d="M608.771 591.937C608.771 615.999 623.209 635.249 647.271 642.468C673.74 649.687 692.99 671.343 700.209 697.812H459.584C464.396 671.343 486.053 649.687 510.115 642.468C531.771 635.249 548.615 615.999 548.615 591.937" stroke-width="48.125" stroke-miterlimit="10" stroke-linecap="round" stroke-linejoin="round"/>
    <path d="M577.5 601.562C551.031 601.562 529.375 579.906 529.375 553.438V505.312C529.375 478.844 551.031 457.188 577.5 457.188C603.969 457.188 625.625 478.844 625.625 505.312V553.438C625.625 579.906 603.969 601.562 577.5 601.562Z" stroke-width="48.125" stroke-miterlimit="10" stroke-linecap="round" stroke-linejoin="round"/>
    <path d="M223.781 591.937C223.781 615.999 238.219 635.249 262.281 642.468C288.75 649.687 308 671.343 315.219 697.812H72.1875C77 671.343 98.6562 649.687 122.719 642.468C144.375 635.249 161.219 615.999 161.219 591.937" stroke-width="48.125" stroke-miterlimit="10" stroke-linecap="round" stroke-linejoin="round"/>
    <path d="M192.5 601.562C166.031 601.562 144.375 579.906 144.375 553.438V505.312C144.375 478.844 166.031 457.188 192.5 457.188C218.969 457.188 240.625 478.844 240.625 505.312V553.438C240.625 579.906 218.969 601.562 192.5 601.562Z" stroke-width="48.125" stroke-miterlimit="10" stroke-linecap="round" stroke-linejoin="round"/>
</symbol><symbol viewBox="0 0 800 800" id="topics-puzzles" xmlns="http://www.w3.org/2000/svg">
    <path d="M599.85 443.8H532.075C531.725 443.8 531.45 443.6 531.1 443.6C513.85 443.625 499.875 457.6 499.85 474.85C499.85 474.9 499.85 474.95 499.85 474.975C499.85 495.675 483.075 512.475 462.35 512.475C441.625 512.475 424.85 495.7 424.85 474.975C424.85 474.925 424.85 474.875 424.85 474.825C424.85 457.575 410.85 443.575 393.6 443.575C393.25 443.575 392.975 443.75 392.625 443.775H356.2V432.175C396.425 418.875 424.95 381.6 424.95 337.675C424.95 293.75 396.425 256.475 356.9 243.375L356.2 243.175V199.95C356.2 182.7 342.2 168.7 324.95 168.7H49.9746C32.7246 168.7 18.7246 182.7 18.7246 199.95V474.35L18.5996 474.95V749.95C18.5996 767.2 32.5996 781.2 49.8496 781.2L599.825 781.3C617.075 781.275 631.05 767.3 631.075 750.05V475.05C631.05 457.8 617.1 443.825 599.85 443.8ZM81.2496 231.2H293.725V268.95C293.725 286.2 307.725 300.2 324.975 300.2C345.675 300.2 362.475 317 362.475 337.7C362.475 358.4 345.675 375.2 324.975 375.2C307.725 375.2 293.725 389.2 293.725 406.45V443.7H282.1C268.675 403.45 231.35 374.95 187.375 374.95C146.2 374.95 110.85 399.925 95.6746 435.55L95.4246 436.2C94.3996 438.6 93.8996 441.2 93.0746 443.7H81.2496V231.2ZM81.1246 506.2H117.55C117.975 506.225 118.325 506.45 118.75 506.45C136.05 506.3 150.025 492.275 150.1 474.975C150.25 454.425 166.95 437.8 187.55 437.8C208.225 437.8 224.975 454.55 225 475.2C225 492.45 239 506.45 256.25 506.45C256.675 506.45 257.025 506.225 257.45 506.2H293.65V517.85C253.4 531.275 224.9 568.6 224.9 612.575C224.9 653.725 249.85 689.05 285.45 704.25L286.1 704.5C288.5 705.525 291.15 706.05 293.65 706.875V718.675H81.1496L81.1246 506.2ZM568.6 718.8H356.125V682.3C356.15 681.925 356.35 681.6 356.35 681.225C356.2 663.925 342.2 649.95 324.9 649.875C304.275 649.8 287.55 633.075 287.55 612.425C287.55 591.75 304.325 574.975 325 574.975C325.05 574.975 325.075 574.975 325.125 574.975C342.375 574.975 356.375 560.975 356.375 543.725C356.375 543.35 356.175 543.025 356.15 542.65V506.325H367.95C381.3 546.45 418.525 574.875 462.375 574.875C506.225 574.875 543.45 546.45 556.6 507.025L556.8 506.325H568.6V718.8ZM749.85 18.75H474.9C457.65 18.75 443.65 32.75 443.65 50V117.55C443.625 117.975 443.4 118.325 443.4 118.75C443.4 136 457.4 150 474.65 150C495.35 150 512.15 166.8 512.15 187.5C512.15 208.2 495.35 225 474.65 225C457.4 225 443.4 239 443.4 256.25C443.4 256.675 443.625 257.025 443.65 257.45V325C443.65 342.25 457.65 356.25 474.9 356.25H517.65C530.95 396.475 568.225 425 612.15 425C656.075 425 693.35 396.475 706.45 356.95L706.65 356.25H749.85C767.1 356.25 781.1 342.25 781.1 325V50C781.1 32.75 767.1 18.75 749.85 18.75ZM718.6 293.75H680.9C663.65 293.75 649.65 307.75 649.65 325C649.65 345.7 632.85 362.5 612.15 362.5C591.45 362.5 574.65 345.7 574.65 325C574.65 307.75 560.65 293.75 543.4 293.75H506.15V281.925C546.25 268.55 574.65 231.325 574.65 187.5C574.65 143.675 546.25 106.45 506.85 93.275L506.15 93.075V81.25H718.6V293.75Z"/>
</symbol><symbol viewBox="0 0 800 800" id="topics-tree" xmlns="http://www.w3.org/2000/svg">
    <path d="M266.667 566.667H366.667V700H266.667C257.826 700 249.348 703.512 243.096 709.763C236.845 716.014 233.333 724.493 233.333 733.333C233.333 742.174 236.845 750.652 243.096 756.903C249.348 763.155 257.826 766.667 266.667 766.667H533.333C542.174 766.667 550.652 763.155 556.903 756.903C563.155 750.652 566.667 742.174 566.667 733.333C566.667 724.493 563.155 716.014 556.903 709.763C550.652 703.512 542.174 700 533.333 700H433.333V566.667H533.333C574.665 566.708 614.538 551.391 645.211 523.687C675.884 495.984 695.17 457.872 699.324 416.75C703.477 375.627 692.203 334.428 667.689 301.151C643.176 267.873 607.172 244.891 566.667 236.667V200C566.667 155.797 549.107 113.405 517.851 82.1488C486.595 50.8927 444.203 33.3333 400 33.3333C355.797 33.3333 313.405 50.8927 282.149 82.1488C250.893 113.405 233.333 155.797 233.333 200V236.667C192.828 244.891 156.824 267.873 132.31 301.151C107.797 334.428 96.5224 375.627 100.676 416.75C104.83 457.872 124.115 495.984 154.789 523.687C185.462 551.391 225.335 566.708 266.667 566.667ZM266.667 300C275.507 300 283.986 296.488 290.237 290.237C296.488 283.986 300 275.507 300 266.667V200C300 173.478 310.536 148.043 329.289 129.289C348.043 110.536 373.478 99.9999 400 99.9999C426.522 99.9999 451.957 110.536 470.711 129.289C489.464 148.043 500 173.478 500 200V266.667C500 275.507 503.512 283.986 509.763 290.237C516.014 296.488 524.493 300 533.333 300C559.855 300 585.29 310.536 604.044 329.289C622.798 348.043 633.333 373.478 633.333 400C633.333 426.522 622.798 451.957 604.044 470.711C585.29 489.464 559.855 500 533.333 500H433.333V480.467L523.567 390.233C529.638 383.946 532.998 375.526 532.922 366.787C532.846 358.047 529.341 349.686 523.161 343.506C516.98 337.326 508.62 333.82 499.88 333.744C491.14 333.668 482.72 337.028 476.433 343.1L433.333 386.2V300C433.333 291.159 429.821 282.681 423.57 276.43C417.319 270.178 408.84 266.667 400 266.667C391.159 266.667 382.681 270.178 376.43 276.43C370.178 282.681 366.667 291.159 366.667 300V386.2L323.567 343.1C317.28 337.028 308.86 333.668 300.12 333.744C291.38 333.82 283.02 337.326 276.839 343.506C270.659 349.686 267.153 358.047 267.077 366.787C267.001 375.526 270.361 383.946 276.433 390.233L366.667 480.467V500H266.667C240.145 500 214.71 489.464 195.956 470.711C177.202 451.957 166.667 426.522 166.667 400C166.667 373.478 177.202 348.043 195.956 329.289C214.71 310.536 240.145 300 266.667 300Z"/>
</symbol></svg>