<svg width="800" height="800" fill="none" xmlns="http://www.w3.org/2000/svg"><path d="M266.667 566.667h100V700h-100a33.337 33.337 0 00-33.334 33.333 33.332 33.332 0 0033.334 33.334h266.666a33.33 33.33 0 0023.57-9.764 33.33 33.33 0 000-47.14 33.332 33.332 0 00-23.57-9.763h-100V566.667h100A166.665 166.665 0 00699.324 416.75a166.668 166.668 0 00-132.657-180.083V200a166.667 166.667 0 00-333.334 0v36.667A166.662 166.662 0 00100.676 416.75a166.665 166.665 0 00165.991 149.917zm0-266.667A33.334 33.334 0 00300 266.667V200a100.003 100.003 0 01100-100 100.003 100.003 0 01100 100v66.667A33.334 33.334 0 00533.333 300a100.003 100.003 0 01100 100 99.999 99.999 0 01-100 100h-100v-19.533l90.234-90.234a33.337 33.337 0 00-.406-46.727 33.337 33.337 0 00-46.728-.406l-43.1 43.1V300a33.332 33.332 0 10-66.666 0v86.2l-43.1-43.1a33.334 33.334 0 00-47.134 47.133l90.234 90.234V500h-100a100.003 100.003 0 01-100-100 99.999 99.999 0 01100-100z" fill="#731C00"/></svg>