<svg width="770" height="770" fill="none" xmlns="http://www.w3.org/2000/svg"><path d="M385 409.062v72.188m-48.125 24.064L385 476.439l48.125 28.875m-16.854-298.377c0 24.063 14.438 43.312 38.5 50.531 26.469 7.219 45.719 28.875 52.938 55.344H267.084c4.812-26.469 26.469-48.125 50.531-55.344 21.656-7.219 38.5-26.468 38.5-50.531" stroke="#731C00" stroke-width="48.125" stroke-miterlimit="10" stroke-linecap="round" stroke-linejoin="round"/><path d="M385 216.562c-26.469 0-48.125-21.656-48.125-48.124v-48.126c0-26.468 21.656-48.124 48.125-48.124s48.125 21.656 48.125 48.124v48.126c0 26.468-21.656 48.124-48.125 48.124zm223.771 375.375c0 24.062 14.438 43.312 38.5 50.531 26.469 7.219 45.719 28.875 52.938 55.344H459.584c4.812-26.469 26.469-48.125 50.531-55.344 21.656-7.219 38.5-26.469 38.5-50.531" stroke="#731C00" stroke-width="48.125" stroke-miterlimit="10" stroke-linecap="round" stroke-linejoin="round"/><path d="M577.5 601.562c-26.469 0-48.125-21.656-48.125-48.124v-48.126c0-26.468 21.656-48.124 48.125-48.124s48.125 21.656 48.125 48.124v48.126c0 26.468-21.656 48.124-48.125 48.124zm-353.719-9.625c0 24.062 14.438 43.312 38.5 50.531 26.469 7.219 45.719 28.875 52.938 55.344H72.188c4.812-26.469 26.468-48.125 50.531-55.344 21.656-7.219 38.5-26.469 38.5-50.531" stroke="#731C00" stroke-width="48.125" stroke-miterlimit="10" stroke-linecap="round" stroke-linejoin="round"/><path d="M192.5 601.562c-26.469 0-48.125-21.656-48.125-48.124v-48.126c0-26.468 21.656-48.124 48.125-48.124s48.125 21.656 48.125 48.124v48.126c0 26.468-21.656 48.124-48.125 48.124z" stroke="#731C00" stroke-width="48.125" stroke-miterlimit="10" stroke-linecap="round" stroke-linejoin="round"/></svg>