<svg width="800" height="800" fill="none" xmlns="http://www.w3.org/2000/svg"><path d="M599.85 443.8h-67.775c-.35 0-.625-.2-.975-.2-17.25.025-31.225 14-31.25 31.25v.125c0 20.7-16.775 37.5-37.5 37.5s-37.5-16.775-37.5-37.5v-.15c0-17.25-14-31.25-31.25-31.25-.35 0-.625.175-.975.2H356.2v-11.6c40.225-13.3 68.75-50.575 68.75-94.5s-28.525-81.2-68.05-94.3l-.7-.2V199.95c0-17.25-14-31.25-31.25-31.25H49.975c-17.25 0-31.25 14-31.25 31.25v274.4l-.125.6v275c0 17.25 14 31.25 31.25 31.25l549.975.1c17.25-.025 31.225-14 31.25-31.25v-275c-.025-17.25-13.975-31.225-31.225-31.25zM81.25 231.2h212.475v37.75c0 17.25 14 31.25 31.25 31.25 20.7 0 37.5 16.8 37.5 37.5s-16.8 37.5-37.5 37.5c-17.25 0-31.25 14-31.25 31.25v37.25H282.1c-13.425-40.25-50.75-68.75-94.725-68.75-41.175 0-76.525 24.975-91.7 60.6l-.25.65c-1.025 2.4-1.525 5-2.35 7.5H81.25V231.2zm-.125 275h36.425c.425.025.775.25 1.2.25 17.3-.15 31.275-14.175 31.35-31.475.15-20.55 16.85-37.175 37.45-37.175 20.675 0 37.425 16.75 37.45 37.4 0 17.25 14 31.25 31.25 31.25.425 0 .775-.225 1.2-.25h36.2v11.65c-40.25 13.425-68.75 50.75-68.75 94.725 0 41.15 24.95 76.475 60.55 91.675l.65.25c2.4 1.025 5.05 1.55 7.55 2.375v11.8H81.15L81.125 506.2zM568.6 718.8H356.125v-36.5c.025-.375.225-.7.225-1.075-.15-17.3-14.15-31.275-31.45-31.35-20.625-.075-37.35-16.8-37.35-37.45 0-20.675 16.775-37.45 37.45-37.45h.125c17.25 0 31.25-14 31.25-31.25 0-.375-.2-.7-.225-1.075v-36.325h11.8c13.35 40.125 50.575 68.55 94.425 68.55 43.85 0 81.075-28.425 94.225-67.85l.2-.7h11.8V718.8zM749.85 18.75H474.9c-17.25 0-31.25 14-31.25 31.25v67.55c-.025.425-.25.775-.25 1.2 0 17.25 14 31.25 31.25 31.25 20.7 0 37.5 16.8 37.5 37.5s-16.8 37.5-37.5 37.5c-17.25 0-31.25 14-31.25 31.25 0 .425.225.775.25 1.2V325c0 17.25 14 31.25 31.25 31.25h42.75c13.3 40.225 50.575 68.75 94.5 68.75s81.2-28.525 94.3-68.05l.2-.7h43.2c17.25 0 31.25-14 31.25-31.25V50c0-17.25-14-31.25-31.25-31.25zm-31.25 275h-37.7c-17.25 0-31.25 14-31.25 31.25 0 20.7-16.8 37.5-37.5 37.5s-37.5-16.8-37.5-37.5c0-17.25-14-31.25-31.25-31.25h-37.25v-11.825c40.1-13.375 68.5-50.6 68.5-94.425 0-43.825-28.4-81.05-67.8-94.225l-.7-.2V81.25H718.6v212.5z" fill="#731C00"/></svg>