<svg width="800" height="800" viewBox="0 0 800 800" fill="none" xmlns="http://www.w3.org/2000/svg">
<path d="M266.667 566.667H366.667V700H266.667C257.826 700 249.348 703.512 243.096 709.763C236.845 716.014 233.333 724.493 233.333 733.333C233.333 742.174 236.845 750.652 243.096 756.903C249.348 763.155 257.826 766.667 266.667 766.667H533.333C542.174 766.667 550.652 763.155 556.903 756.903C563.155 750.652 566.667 742.174 566.667 733.333C566.667 724.493 563.155 716.014 556.903 709.763C550.652 703.512 542.174 700 533.333 700H433.333V566.667H533.333C574.665 566.708 614.538 551.391 645.211 523.687C675.884 495.984 695.17 457.872 699.324 416.75C703.477 375.627 692.203 334.428 667.689 301.151C643.176 267.873 607.172 244.891 566.667 236.667V200C566.667 155.797 549.107 113.405 517.851 82.1488C486.595 50.8927 444.203 33.3333 400 33.3333C355.797 33.3333 313.405 50.8927 282.149 82.1488C250.893 113.405 233.333 155.797 233.333 200V236.667C192.828 244.891 156.824 267.873 132.31 301.151C107.797 334.428 96.5224 375.627 100.676 416.75C104.83 457.872 124.115 495.984 154.789 523.687C185.462 551.391 225.335 566.708 266.667 566.667ZM266.667 300C275.507 300 283.986 296.488 290.237 290.237C296.488 283.986 300 275.507 300 266.667V200C300 173.478 310.536 148.043 329.289 129.289C348.043 110.536 373.478 99.9999 400 99.9999C426.522 99.9999 451.957 110.536 470.711 129.289C489.464 148.043 500 173.478 500 200V266.667C500 275.507 503.512 283.986 509.763 290.237C516.014 296.488 524.493 300 533.333 300C559.855 300 585.29 310.536 604.044 329.289C622.798 348.043 633.333 373.478 633.333 400C633.333 426.522 622.798 451.957 604.044 470.711C585.29 489.464 559.855 500 533.333 500H433.333V480.467L523.567 390.233C529.638 383.946 532.998 375.526 532.922 366.787C532.846 358.047 529.341 349.686 523.161 343.506C516.98 337.326 508.62 333.82 499.88 333.744C491.14 333.668 482.72 337.028 476.433 343.1L433.333 386.2V300C433.333 291.159 429.821 282.681 423.57 276.43C417.319 270.178 408.84 266.667 400 266.667C391.159 266.667 382.681 270.178 376.43 276.43C370.178 282.681 366.667 291.159 366.667 300V386.2L323.567 343.1C317.28 337.028 308.86 333.668 300.12 333.744C291.38 333.82 283.02 337.326 276.839 343.506C270.659 349.686 267.153 358.047 267.077 366.787C267.001 375.526 270.361 383.946 276.433 390.233L366.667 480.467V500H266.667C240.145 500 214.71 489.464 195.956 470.711C177.202 451.957 166.667 426.522 166.667 400C166.667 373.478 177.202 348.043 195.956 329.289C214.71 310.536 240.145 300 266.667 300Z" fill="#731C00"/>
</svg>
