<svg width="616" height="616" viewBox="0 0 616 616" fill="none" xmlns="http://www.w3.org/2000/svg">
<g clip-path="url(#clip0_525_599)">
<path d="M404.25 234.85C338.8 234.85 275.275 227.15 219.45 211.75C215.6 236.775 211.75 263.725 211.75 290.675C211.75 460.075 298.375 596.75 404.25 596.75C510.125 596.75 596.75 460.075 596.75 290.675C596.75 263.725 594.825 236.775 589.05 211.75C533.225 227.15 469.7 234.85 404.25 234.85Z" stroke="#731C00" stroke-width="38.5" stroke-miterlimit="10" stroke-linecap="round" stroke-linejoin="round"/>
<path d="M404.25 463.925C375.375 463.925 348.425 456.225 327.25 442.75C331.1 485.1 363.825 519.75 404.25 519.75C444.675 519.75 477.4 485.1 481.25 442.75C460.075 456.225 433.125 463.925 404.25 463.925Z" stroke="#731C00" stroke-width="38.5" stroke-miterlimit="10" stroke-linecap="round" stroke-linejoin="round"/>
<path d="M288.75 385C288.75 363.825 306.075 346.5 327.25 346.5C348.425 346.5 365.75 363.825 365.75 385" stroke="#731C00" stroke-width="38.5" stroke-miterlimit="10" stroke-linecap="round" stroke-linejoin="round"/>
<path d="M442.75 385C442.75 363.825 460.075 346.5 481.25 346.5C502.425 346.5 519.75 363.825 519.75 385" stroke="#731C00" stroke-width="38.5" stroke-miterlimit="10" stroke-linecap="round" stroke-linejoin="round"/>
<path d="M385 234.85C398.475 194.425 404.25 148.225 404.25 100.1C404.25 73.15 402.325 46.2 396.55 21.175C338.8 36.575 277.2 44.275 211.75 44.275C146.3 44.275 82.775 34.65 26.95 19.25C21.175 44.275 19.25 71.225 19.25 98.175C19.25 267.575 105.875 404.25 211.75 404.25C215.6 404.25 221.375 404.25 225.225 404.25" stroke="#731C00" stroke-width="38.5" stroke-miterlimit="10" stroke-linecap="round" stroke-linejoin="round"/>
<path d="M211.75 286.825C182.875 286.825 155.925 294.525 134.75 308C138.6 265.65 171.325 231 211.75 231" stroke="#731C00" stroke-width="38.5" stroke-miterlimit="10" stroke-linecap="round" stroke-linejoin="round"/>
<path d="M96.25 134.75C96.25 155.925 113.575 173.25 134.75 173.25C155.925 173.25 173.25 155.925 173.25 134.75" stroke="#731C00" stroke-width="38.5" stroke-miterlimit="10" stroke-linecap="round" stroke-linejoin="round"/>
<path d="M250.25 134.75C250.25 155.925 267.575 173.25 288.75 173.25C309.925 173.25 327.25 155.925 327.25 134.75" stroke="#731C00" stroke-width="38.5" stroke-miterlimit="10" stroke-linecap="round" stroke-linejoin="round"/>
</g>
<defs>
<clipPath id="clip0_525_599">
<rect width="616" height="616" fill="white"/>
</clipPath>
</defs>
</svg>
