<svg width="331" height="331" viewBox="0 0 331 331" fill="none" xmlns="http://www.w3.org/2000/svg">
<g clip-path="url(#clip0_447_551)">
<mask id="mask0_447_551" style="mask-type:luminance" maskUnits="userSpaceOnUse" x="0" y="0" width="331" height="331">
<path d="M331 0H0V331H331V0Z" fill="white"/>
</mask>
<g mask="url(#mask0_447_551)">
<path d="M172.491 321.806H158.708C121.032 321.806 93.7027 321.786 72.8482 318.983C52.2582 316.215 39.3624 310.887 29.7377 301.262C20.1121 291.637 14.7841 278.74 12.0168 258.175C9.21399 237.346 9.19444 210.067 9.19444 172.491V158.509C9.19444 120.926 9.214 93.6471 12.0168 72.82C14.784 52.2574 20.1118 39.3636 29.7377 29.7377L23.8272 23.8273L29.7377 29.7377C39.3624 20.113 52.2582 14.7846 72.8483 12.0171C93.7027 9.21398 121.032 9.19444 158.708 9.19444H172.491C210.16 9.19444 237.539 9.21393 258.421 12.0173C279.05 14.7866 291.922 20.1168 301.433 29.7098C310.973 39.332 316.261 52.2381 319.007 72.8194C321.786 93.6563 321.806 120.941 321.806 158.509V172.491V173.702C321.806 210.667 321.806 237.583 319.08 258.196C316.359 278.767 311.075 291.649 301.461 301.262C291.837 310.887 278.938 316.215 258.345 318.983C237.489 321.786 210.16 321.806 172.491 321.806Z" stroke="#731C00" stroke-width="18.3889"/>
<path d="M177.61 238.648C102.976 238.648 57.6818 186.867 55.9209 100.82H93.7211C94.8995 164.028 123.657 190.852 145.701 196.32V100.82H181.939V155.356C203.203 152.999 225.446 128.187 232.94 100.82H268.569C262.862 134.489 238.646 159.301 221.514 169.536C238.646 177.811 266.212 199.471 276.844 238.648H237.666C229.391 212.46 209.108 192.176 181.939 189.422V238.648H177.61Z" fill="#731C00"/>
</g>
</g>
<defs>
<clipPath id="clip0_447_551">
<rect width="331" height="331" fill="white"/>
</clipPath>
</defs>
</svg>
