<svg width="331" height="331" fill="none" xmlns="http://www.w3.org/2000/svg"><g clip-path="url(#clip0_447_551)"><mask id="a" style="mask-type:luminance" maskUnits="userSpaceOnUse" x="0" y="0" width="331" height="331"><path d="M331 0H0v331h331V0z" fill="#fff"/></mask><g mask="url(#a)"><path d="M172.491 321.806h-13.783c-37.676 0-65.005-.02-85.86-2.823-20.59-2.768-33.486-8.096-43.11-17.721-9.626-9.625-14.954-22.522-17.721-43.087-2.803-20.829-2.823-48.108-2.823-85.684v-13.982c0-37.583.02-64.862 2.823-85.689 2.767-20.563 8.095-33.456 17.72-43.082l-5.91-5.91 5.91 5.91c9.625-9.625 22.521-14.953 43.111-17.72 20.855-2.804 48.184-2.824 85.86-2.824h13.783c37.669 0 65.048.02 85.93 2.823 20.629 2.77 33.501 8.1 43.012 17.693 9.54 9.622 14.828 22.528 17.574 43.11 2.779 20.836 2.799 48.121 2.799 85.689v15.193c0 36.965 0 63.881-2.726 84.494-2.721 20.571-8.005 33.453-17.619 43.066-9.624 9.625-22.523 14.953-43.116 17.721-20.856 2.803-48.185 2.823-85.854 2.823z" stroke="#731C00" stroke-width="18.389"/><path d="M177.61 238.648c-74.634 0-119.928-51.781-121.69-137.828h37.801c1.178 63.208 29.936 90.032 51.98 95.5v-95.5h36.238v54.536c21.264-2.357 43.507-27.169 51.001-54.536h35.629c-5.707 33.669-29.923 58.481-47.055 68.716 17.132 8.275 44.698 29.935 55.33 69.112h-39.178c-8.275-26.188-28.558-46.472-55.727-49.226v49.226h-4.329z" fill="#731C00"/></g></g><defs><clipPath id="clip0_447_551"><path fill="#fff" d="M0 0h331v331H0z"/></clipPath></defs></svg>