<svg width="442" height="244" fill="none" xmlns="http://www.w3.org/2000/svg"><path fill-rule="evenodd" clip-rule="evenodd" d="M67.384 0H.535v155.981h.043c1.517 48.862 42.818 88.02 93.546 88.02 51.688 0 93.589-40.654 93.589-90.803 0-50.149-41.901-90.804-93.59-90.804a96.87 96.87 0 00-17.826 1.646v73.33c4.363-3.68 10-5.899 16.155-5.899 13.845 0 25.068 11.224 25.068 25.069 0 13.845-11.223 25.068-25.068 25.068-13.66 0-24.768-10.925-25.063-24.514h-.006v-1.113h.001V0zm194.978 0h-83.561v77.983c17.37 20.413 27.852 46.868 27.852 75.772 0 28.903-10.482 55.359-27.852 75.772v14.472h83.561V0zM441.74 0H275.732v70.192h56.818l-55.707 142.61v27.854h79.104l60.721-170.464h.004L441.74 0z" fill="#731C00"/></svg>