<svg width="430" height="387" fill="none" xmlns="http://www.w3.org/2000/svg"><g clip-path="url(#clip0_455_24)"><path d="M388.691 0H43.188A43.436 43.436 0 000 43.188v296.145a43.433 43.433 0 0043.188 43.188H388.69a43.42 43.42 0 0030.465-12.722 43.418 43.418 0 0012.722-30.466V43.188a43.421 43.421 0 00-12.722-30.467A43.43 43.43 0 00388.691 0zM43.188 37.018H388.69a6.17 6.17 0 016.169 6.17v38.005l-178.92 89.337-178.92-89.337V43.188a6.17 6.17 0 016.169-6.17zM388.69 345.503H43.188a6.166 6.166 0 01-6.17-6.17V122.407l170.53 85.388a18.764 18.764 0 0016.782 0l170.53-85.388v216.926a6.17 6.17 0 01-6.169 6.17z" fill="#731C00"/></g><defs><clipPath id="clip0_455_24"><path fill="#fff" d="M0 0h430v387H0z"/></clipPath></defs></svg>