<svg width="268" height="299" fill="none" xmlns="http://www.w3.org/2000/svg"><path d="M76.472 10.494S71.992 0 65.15 0c-6.734 0-10.236 3.109-12.57 5.254-2.335 2.145-41.407 34.252-41.407 34.252S-.19 49.43.678 68.096c.733 18.667 4.385 45.236 23.337 82.243 18.816 36.927 65.911 93.348 95.67 113.183 0 0 27.572 21.151 53.231 29.744 7.453 2.349 22.359 5.404 25.835 5.404 3.529 0 9.761 0 16.915-5.227 7.277-5.281 48.099-38.108 48.099-38.108s9.992-9.028-1.615-19.522c-11.662-10.494-47.068-33.831-54.643-39.967-7.589-6.232-18.395-3.489-23.065.733-4.657 4.249-12.979 11.241-13.997 12.123-1.521 1.168-5.689 4.955-10.359 3.068-5.946-2.348-30.328-15.585-52.932-46.511-22.468-30.898-24.939-40.999-28.292-51.914a7.602 7.602 0 013.054-8.919c3.367-2.335 15.762-12.667 15.762-12.667s8.023-7.914 4.67-17.24c-3.353-9.328-25.876-64.025-25.876-64.025z" fill="#731C00"/></svg>