<svg width="412" height="344" fill="none" xmlns="http://www.w3.org/2000/svg"><path d="M39.6 151.821s167.877-68.687 226.1-92.872c22.318-9.674 98.008-40.632 98.008-40.632s34.934-13.541 32.023 19.348c-.972 13.544-8.735 60.947-16.499 112.219-11.643 72.557-24.259 151.882-24.259 151.882s-1.939 22.251-18.435 26.121c-16.498 3.87-43.668-13.544-48.52-17.414-3.881-2.903-72.778-46.436-98.006-67.717-6.794-5.804-14.557-17.414.969-30.958 34.933-31.923 76.66-71.588 101.889-96.739 11.643-11.61 23.29-38.698-25.229-5.807-68.897 47.403-136.824 91.905-136.824 91.905s-15.524 9.674-44.636.967c-29.111-8.707-63.075-20.315-63.075-20.315S-.18 167.296 39.604 151.821H39.6z" stroke="#731C00" stroke-width="30.776"/></svg>