<svg width="381" height="381" fill="none" xmlns="http://www.w3.org/2000/svg"><path d="M324.053 55.28A187.054 187.054 0 00190.619 0 189.195 189.195 0 0027.052 94.44a189.193 189.193 0 00-.365 188.871L0 381.24l100.075-26.21a188.959 188.959 0 0090.306 23.827 190.61 190.61 0 00134.2-55.241A190.618 190.618 0 00381 189.906a190.612 190.612 0 00-56.947-134.625zM190.619 346.214a156.761 156.761 0 01-80.06-21.921l-5.718-3.574-59.33 15.726 15.725-57.9-3.812-5.957a157.261 157.261 0 01244.231-194.67 158.457 158.457 0 0147.655 111.036 158.694 158.694 0 01-158.691 157.26zm86.017-117.707c-4.765-2.383-27.878-13.82-32.167-15.249-4.289-1.43-7.625-2.383-10.722 2.382a214.457 214.457 0 01-15.012 18.347c-2.621 3.336-5.48 3.575-10.245 0a126.99 126.99 0 01-64.096-55.994c-5.004-8.34 4.765-7.863 13.82-25.734a9.047 9.047 0 000-8.339c0-2.383-10.722-25.734-14.535-35.027-3.812-9.292-7.625-7.863-10.722-8.101h-9.293a16.916 16.916 0 00-12.628 5.957 52.177 52.177 0 00-15.726 40.268 91.013 91.013 0 0019.3 48.847 211.812 211.812 0 0080.775 71.482 91.75 91.75 0 0056.709 11.913 47.613 47.613 0 0018.228-7.827 47.603 47.603 0 0013.462-14.57 38.593 38.593 0 002.86-22.398c-2.145-2.383-5.243-3.574-10.008-5.957z" fill="#731C00"/></svg>