<svg width="412" height="344" viewBox="0 0 412 344" fill="none" xmlns="http://www.w3.org/2000/svg">
<path d="M39.5994 151.821C39.5994 151.821 207.477 83.1339 265.7 58.9491C288.018 49.2752 363.708 18.3172 363.708 18.3172C363.708 18.3172 398.642 4.77581 395.731 37.665C394.759 51.209 386.996 98.6116 379.232 149.884C367.589 222.441 354.973 301.766 354.973 301.766C354.973 301.766 353.034 324.017 336.538 327.887C320.04 331.757 292.87 314.343 288.018 310.473C284.137 307.57 215.24 264.037 190.012 242.756C183.218 236.952 175.455 225.342 190.981 211.798C225.914 179.875 267.641 140.21 292.87 115.059C304.513 103.449 316.16 76.3606 267.641 109.252C198.744 156.655 130.817 201.157 130.817 201.157C130.817 201.157 115.293 210.831 86.1813 202.124C57.0699 193.417 23.1061 181.809 23.1061 181.809C23.1061 181.809 -0.18107 167.296 39.6045 151.821H39.5994Z" stroke="#731C00" stroke-width="30.7759"/>
</svg>
