<svg width="800" height="800" fill="none" xmlns="http://www.w3.org/2000/svg"><path d="M633.334 700c0-11.233-.607-22.357-1.79-33.333m0 0H300m331.544 0c-5.214-48.304-21.63-93.767-46.947-133.334M166.667 100c0 11.234.606 22.357 1.79 33.333m0 0H500m-331.543 0c5.212 48.303 21.63 93.767 46.945 133.334M166.667 700c0-138.113 91.557-259.493 224.357-297.433l17.953-5.134c132.8-37.94 224.357-159.32 224.357-297.433M416.667 266.667H215.402m0 0c39.66 61.983 101.156 109.493 175.622 130.766l17.953 5.134c74.467 21.273 135.963 68.783 175.62 130.766m-201.263 0h201.263" stroke="#731C00" stroke-width="66.667" stroke-linecap="round" stroke-linejoin="round"/></svg>