<svg width="800" height="800" fill="none" xmlns="http://www.w3.org/2000/svg"><g clip-path="url(#clip0_525_610)"><path d="M14.6 750.05l35.35 35.35c19.45 19.45 51.25 19.45 70.7 0L304.4 601.65C354 632.3 412.45 650 475 650c179.5 0 325-145.5 325-325S654.5 0 475 0 150 145.5 150 325c0 62.55 17.7 121 48.35 170.6L14.6 679.35c-19.45 19.45-19.45 51.25 0 70.7zM475 550c-60.1 0-116.6-23.4-159.1-65.9-42.5-42.5-65.9-99-65.9-159.1 0-60.1 23.4-116.6 65.9-159.1 42.5-42.5 99-65.9 159.1-65.9 60.1 0 116.6 23.4 159.1 65.9 42.5 42.5 65.9 99 65.9 159.1 0 60.1-23.4 116.6-65.9 159.1-42.5 42.5-99 65.9-159.1 65.9z" fill="#731C00"/></g><defs><clipPath id="clip0_525_610"><path fill="#fff" d="M0 0h800v800H0z"/></clipPath></defs></svg>